<svg width="729" height="756" viewBox="0 0 729 756" fill="none" xmlns="http://www.w3.org/2000/svg">
<path d="M351.762 238.542C348.774 230.892 297.751 92.6762 297.751 92.6762C389.179 33.9451 499.787 29.3733 542.979 87.924C598.785 161.824 567.614 185.635 578.261 224.275C538.458 186.337 500.318 168.471 351.782 238.542H351.762Z" fill="#9FD2DA" stroke="#191919" stroke-width="4.5" stroke-linecap="round" stroke-linejoin="round"/>
<path d="M362.399 194.862C354.609 173.878 341.013 136.232 333.514 115.969C343.409 113.002 350.007 102.765 344.663 93.8525C421.112 53.0174 515.477 42.5906 565.538 137.224C577.118 169.668 557.467 171.202 565.608 200.758C541.144 168.444 493.5 155.311 383.183 201.399C379.092 192.145 372.034 188.717 362.379 194.872H362.389L362.399 194.862Z" fill="#529DA9" stroke="#191919" stroke-width="4.5" stroke-linecap="round" stroke-linejoin="round"/>
<path d="M511.337 102.701C493.791 97.6684 476.326 107.233 473.268 121.43C470.2 135.636 485.66 149.913 503.196 154.936C520.741 159.969 544.573 163.418 547.471 149.181C550.77 132.959 528.873 107.734 511.327 102.701H511.337Z" fill="#9FD2DA" stroke="#191919" stroke-width="4.5" stroke-linecap="round" stroke-linejoin="round"/>
<path d="M398.284 115.406C388.017 117.563 381.289 126.745 383.247 135.927C385.205 145.108 395.12 150.801 405.376 148.643C415.632 146.486 422.371 137.304 420.413 128.123C418.455 118.941 408.54 113.249 398.284 115.406Z" fill="#9FD2DA" stroke="#191919" stroke-width="4.5" stroke-linecap="round" stroke-linejoin="round"/>
<path d="M542.969 87.9319C564.154 120.897 569.919 176.189 543.38 198.366L597.41 344.221C626.566 322.506 632.411 285.911 624.451 252.315C618.134 225.646 581.118 129.228 542.969 87.9219V87.9319Z" fill="#CDECF1" stroke="#191919" stroke-width="4.5" stroke-linecap="round" stroke-linejoin="round"/>
<path d="M568.908 123.938C578.934 141.272 581.38 184.423 576.898 192.053C584.639 205.157 573.78 213.769 568.075 214.43L596.008 289.844C600.039 285.293 608.551 286.105 612.822 294.055C622.377 276.44 625.264 256.058 614.757 222.15C600.55 183.27 586.012 155.168 568.918 123.968L568.898 123.948L568.908 123.938Z" fill="#9FD2DA" stroke="#191919" stroke-width="4.5" stroke-linecap="round" stroke-linejoin="round"/>
<path d="M609.914 228.163C612.37 229.086 614.516 228.374 616.08 226.449C613.634 218.749 607.919 203.65 603.978 195.008C601.181 196.712 598.935 201.875 599.286 208.061C599.818 217.155 604.56 226.148 609.914 228.173V228.163Z" fill="#CDECF1" stroke="#191919" stroke-width="4.5" stroke-linecap="round" stroke-linejoin="round"/>
<path d="M541.056 626.854L533.42 641.627C532.214 643.919 530.259 645.885 527.467 647.362C513.52 654.835 484.278 647.786 462.075 631.546C444.347 618.599 436.526 603.663 441.316 594.408L448.953 579.625C444.173 588.88 451.994 603.815 469.711 616.763C491.816 632.959 521.091 640.062 535.104 632.578C537.95 631.079 539.905 629.102 541.046 626.854H541.056Z" fill="#C1BFD0" stroke="#191919" stroke-width="4.5" stroke-linecap="round" stroke-linejoin="round"/>
<path d="M520.353 589.683C542.459 605.878 549.128 625.083 535.17 632.556C521.222 640.029 491.969 632.99 469.777 616.74C447.672 600.534 441.002 581.34 454.95 573.878C468.897 566.405 498.172 573.52 520.342 589.693L520.353 589.683Z" fill="#F0F0F2" stroke="#191919" stroke-width="4.5" stroke-linecap="round" stroke-linejoin="round"/>
<path d="M512.869 593.244C529.586 605.16 535.452 619.096 525.915 624.343C516.377 629.6 495.098 624.234 478.304 612.275C461.587 600.359 455.721 586.433 465.269 581.165C474.806 575.908 496.119 581.328 512.88 593.233L512.869 593.244Z" stroke="#191919" stroke-width="4.5" stroke-linecap="round" stroke-linejoin="round"/>
<path d="M466.267 614.816L458.86 628.655" stroke="#191919" stroke-width="4.5" stroke-linecap="round" stroke-linejoin="round"/>
<path d="M512.041 635.012L504.633 648.85" stroke="#191919" stroke-width="4.5" stroke-linecap="round" stroke-linejoin="round"/>
<path d="M529.01 635.012L521.602 648.85" stroke="#191919" stroke-width="4.5" stroke-linecap="round" stroke-linejoin="round"/>
<path d="M491.415 629.559L484.029 643.451" stroke="#191919" stroke-width="4.5" stroke-linecap="round" stroke-linejoin="round"/>
<path d="M448.671 593.168L441.263 607.006" stroke="#191919" stroke-width="4.5" stroke-linecap="round" stroke-linejoin="round"/>
<path d="M453.454 535.686L440.299 521.283C447.881 529.603 481.631 510.138 517.434 476.454C554.541 441.619 579.861 404.687 574.028 394.086L587.183 408.489C593.049 419.145 567.761 455.99 530.589 490.858C494.775 524.531 461.036 544.007 453.454 535.686Z" fill="#C1BFD0" stroke="#191919" stroke-width="4.5" stroke-linecap="round" stroke-linejoin="round"/>
<path d="M573.964 394.129C579.829 404.785 554.541 441.63 517.37 476.498C480.263 511.333 445.427 530.95 439.507 520.327C433.641 509.671 458.918 472.837 496.036 437.991C533.294 403.156 568.109 383.484 573.974 394.151L573.964 394.129Z" fill="#F0F0F2" stroke="#191919" stroke-width="4.5" stroke-linecap="round" stroke-linejoin="round"/>
<path d="M559.657 406.829C562.622 413.205 541.027 440.86 511.34 468.678C481.707 496.464 455.289 513.843 452.28 507.5C449.315 501.124 470.91 473.468 500.543 445.683C530.284 417.875 556.691 400.463 559.657 406.839V406.829Z" stroke="#191919" stroke-width="4.5" stroke-linecap="round" stroke-linejoin="round"/>
<path d="M573.149 407.816L585.967 421.047" stroke="#191919" stroke-width="4.5" stroke-linecap="round" stroke-linejoin="round"/>
<path d="M456.484 521.359L468.629 534.633" stroke="#191919" stroke-width="4.5" stroke-linecap="round" stroke-linejoin="round"/>
<path d="M546.645 446.008L559.528 460.129" stroke="#191919" stroke-width="4.5" stroke-linecap="round" stroke-linejoin="round"/>
<path d="M522.953 472.293L535.587 485.99" stroke="#191919" stroke-width="4.5" stroke-linecap="round" stroke-linejoin="round"/>
<path d="M471.455 513.168L484.077 527.017" stroke="#191919" stroke-width="4.5" stroke-linecap="round" stroke-linejoin="round"/>
<path d="M492.799 498.441L505.41 512.291" stroke="#191919" stroke-width="4.5" stroke-linecap="round" stroke-linejoin="round"/>
<path d="M563.873 423.504L576.691 436.734" stroke="#191919" stroke-width="4.5" stroke-linecap="round" stroke-linejoin="round"/>
<path d="M97.9327 119.435C110.544 135.391 102.462 142.941 79.7705 136.293C57.133 129.635 28.5101 111.288 15.8878 95.3316C3.27641 79.3749 11.3582 71.8257 34.05 78.4734C56.6659 85.0885 85.2887 103.424 97.9327 119.435Z" fill="#F0F0F2" stroke="#191919" stroke-width="4.5" stroke-linecap="round" stroke-linejoin="round"/>
<path d="M103.071 135.128L95.3698 147.543C92.8823 151.703 84.7245 152.399 72.1022 148.64C49.4647 141.982 20.8418 123.635 8.21953 107.679C2.61445 100.629 1.09369 95.2306 3.08154 91.9937L10.7831 79.5781C8.81697 82.8585 10.3377 88.2679 15.9211 95.2632C28.5325 111.22 57.1662 129.566 79.8038 136.225C92.4369 139.972 100.584 139.288 103.071 135.128Z" fill="#C1BFD0" stroke="#191919" stroke-width="4.5" stroke-linecap="round" stroke-linejoin="round"/>
<path d="M78.0319 137.012L71.0913 148.113" stroke="#191919" stroke-width="4.5" stroke-linecap="round" stroke-linejoin="round"/>
<path d="M91.9799 139.477L85.0393 150.578" stroke="#191919" stroke-width="4.5" stroke-linecap="round" stroke-linejoin="round"/>
<path d="M60.3594 129.113L53.4731 140.193" stroke="#191919" stroke-width="4.5" stroke-linecap="round" stroke-linejoin="round"/>
<path d="M6.30786 104.737L13.7155 92.7773" stroke="#191919" stroke-width="4.5" stroke-linecap="round" stroke-linejoin="round"/>
<path d="M16.1824 116.198L23.59 104.238" stroke="#191919" stroke-width="4.5" stroke-linecap="round" stroke-linejoin="round"/>
<path d="M34.0076 129.764L41.4152 117.805" stroke="#191919" stroke-width="4.5" stroke-linecap="round" stroke-linejoin="round"/>
<path d="M217.878 13.6923C241.363 -8.81429 254.637 2.88433 247.544 39.9789C240.407 76.9974 215.608 125.334 192.123 147.852C168.638 170.358 155.364 158.66 162.458 121.565C169.507 84.5901 194.317 36.2531 217.878 13.6923Z" fill="#F0F0F2" stroke="#191919" stroke-width="4.5" stroke-linecap="round" stroke-linejoin="round"/>
<path d="M219.801 24.6418C236.431 7.45772 242.753 18.5807 233.944 49.6358C225.124 80.6366 204.485 119.773 187.854 136.957C171.224 154.141 164.902 143.018 173.711 111.963C182.488 81.0059 203.116 41.8693 219.801 24.6418Z" stroke="#191919" stroke-width="4.5" stroke-linecap="round" stroke-linejoin="round"/>
<path d="M242.081 3.12109L263.057 13.4619C270.085 16.7858 272.42 29.6467 268.401 50.2958C261.265 87.3143 236.465 135.651 212.981 158.169C202.607 168.162 194.243 171.41 188.779 168.749L167.803 158.408C173.332 161.025 181.707 157.778 192.005 147.828C215.49 125.321 240.289 76.9843 247.426 39.9549C251.445 19.295 249.109 6.44494 242.081 3.12109Z" fill="#C1BFD0" stroke="#191919" stroke-width="4.5" stroke-linecap="round" stroke-linejoin="round"/>
<path d="M247.544 45.8984L266.303 55.2291" stroke="#191919" stroke-width="4.5" stroke-linecap="round" stroke-linejoin="round"/>
<path d="M251.324 21.2305L270.084 30.5611" stroke="#191919" stroke-width="4.5" stroke-linecap="round" stroke-linejoin="round"/>
<path d="M238.202 76.1484L256.918 85.4031" stroke="#191919" stroke-width="4.5" stroke-linecap="round" stroke-linejoin="round"/>
<path d="M206.528 163.243L186.323 153.293" stroke="#191919" stroke-width="4.5" stroke-linecap="round" stroke-linejoin="round"/>
<path d="M223.158 146.059L202.954 136.109" stroke="#191919" stroke-width="4.5" stroke-linecap="round" stroke-linejoin="round"/>
<path d="M241.83 118.872L221.625 108.922" stroke="#191919" stroke-width="4.5" stroke-linecap="round" stroke-linejoin="round"/>
<path d="M132.041 718.921C140.927 742.71 128.435 748.597 103.994 732.032C79.6294 715.467 52.6034 682.728 43.707 658.929C34.8214 635.141 47.3133 629.254 71.7541 645.818C96.1079 662.318 123.134 695.057 132.041 718.921Z" fill="#F0F0F2" stroke="#191919" stroke-width="4.5" stroke-linecap="round" stroke-linejoin="round"/>
<path d="M120.289 713.002C130.999 731.772 125.557 736.16 108.058 722.778C90.5905 709.395 67.6923 683.315 56.9818 664.545C46.2713 645.775 51.7135 641.387 69.213 654.769C86.6583 668.097 109.546 694.177 120.289 713.002Z" stroke="#191919" stroke-width="4.5" stroke-linecap="round" stroke-linejoin="round"/>
<path d="M132.14 739.537L118.236 751.366C113.684 755.364 103.723 753.072 90.1453 743.795C65.7806 727.23 38.7545 694.492 29.8581 670.692C25.8933 660.167 26.1431 653.161 29.7495 650.087L43.6536 638.258C40.0581 641.408 39.8082 648.414 43.7622 658.863C52.6478 682.652 79.6847 715.401 104.049 731.966C117.628 741.243 127.578 743.545 132.14 739.548V739.537Z" fill="#C1BFD0" stroke="#191919" stroke-width="4.5" stroke-linecap="round" stroke-linejoin="round"/>
<path d="M100.377 730.891L87.8743 741.438" stroke="#191919" stroke-width="4.5" stroke-linecap="round" stroke-linejoin="round"/>
<path d="M116.988 739.32L104.485 749.868" stroke="#191919" stroke-width="4.5" stroke-linecap="round" stroke-linejoin="round"/>
<path d="M80.8037 714.09L68.377 724.637" stroke="#191919" stroke-width="4.5" stroke-linecap="round" stroke-linejoin="round"/>
<path d="M28.4453 664.828L41.8388 653.434" stroke="#191919" stroke-width="4.5" stroke-linecap="round" stroke-linejoin="round"/>
<path d="M36.071 683.848L49.4646 672.453" stroke="#191919" stroke-width="4.5" stroke-linecap="round" stroke-linejoin="round"/>
<path d="M50.7046 705.484L64.0981 694.09" stroke="#191919" stroke-width="4.5" stroke-linecap="round" stroke-linejoin="round"/>
<path d="M314.971 710.73L377.308 564.037C377.308 564.037 274.588 576.87 191.358 523.895C122.534 480.099 51.558 366.25 51.558 366.25C51.558 366.25 23.9583 436.403 44.7807 526.748C51.578 556.189 70.9788 619.305 138.962 667.826C223.713 722.733 315.001 710.861 315.001 710.861L315.041 710.811L314.971 710.78V710.74V710.73Z" fill="#9FD2DA" stroke="#191919" stroke-width="4.5" stroke-linecap="round" stroke-linejoin="round"/>
<path d="M55.9728 531.153C47.1834 480.7 53.1298 422.359 53.1298 422.359C60.0172 429.267 67.5753 431.048 73.4816 424.161C148.302 541.194 238.99 577.822 314.251 583.668C314.09 596.361 324.271 602.128 337.415 597.002L307.013 677.096C290.415 677.737 286.941 688.488 287.622 693.593C259.311 695.776 203.221 692.452 143.597 651.749C80.4191 608.644 56.5334 534.347 55.9628 531.163V531.143L55.9728 531.153Z" fill="#529DA9" stroke="#191919" stroke-width="4.5" stroke-linecap="round" stroke-linejoin="round"/>
<path d="M140.124 621.5C159.354 635.675 183.19 633.753 193.361 617.216C203.532 600.679 196.184 575.783 176.943 561.598C157.713 547.423 133.877 549.345 123.706 565.882C113.535 582.419 120.883 607.315 140.124 621.5Z" fill="#9FD2DA" stroke="#191919" stroke-width="4.5" stroke-linecap="round" stroke-linejoin="round"/>
<path d="M242.164 649.48C251.476 653.237 262.338 648.374 266.468 638.65C270.598 628.925 266.399 617.982 257.086 614.236C247.774 610.479 236.912 615.331 232.782 625.067C228.652 634.791 232.851 645.734 242.164 649.48Z" fill="#9FD2DA" stroke="#191919" stroke-width="4.5" stroke-linecap="round" stroke-linejoin="round"/>
<path d="M79.0312 531.52C88.3265 535.266 99.2351 530.41 103.353 520.675C107.47 510.94 103.285 500.019 93.9782 496.261C84.6828 492.525 73.7743 497.371 69.6568 507.105C65.5393 516.84 69.7245 527.762 79.0312 531.52Z" fill="#9FD2DA" stroke="#191919" stroke-width="4.5" stroke-linecap="round" stroke-linejoin="round"/>
<path d="M88.0076 515.336C71.0994 538.24 61.2589 580.364 77.216 603.868C34.7103 545.427 34.7303 464.843 38.0339 432.859C38.9348 460.819 56.8441 496.316 88.0076 515.326V515.336Z" fill="#CDECF1" stroke="#191919" stroke-width="4.5" stroke-linecap="round" stroke-linejoin="round"/>
<path d="M496.969 580.03L241.948 631.941C229.489 634.483 217.323 626.39 214.781 613.888L140.709 249.807C136.299 228.137 151.224 214.777 165.139 211.942L411.882 161.725C424.341 159.195 436.508 167.276 439.049 179.779L514.935 552.799C517.477 565.301 509.439 577.499 496.979 580.03H496.969Z" fill="#9693AD" stroke="#191919" stroke-width="4.5" stroke-linecap="round" stroke-linejoin="round"/>
<path d="M412.523 161.571L166.725 211.614C154.635 214.068 146.835 225.897 149.301 238.031L223.384 602.285C225.85 614.418 237.646 622.25 249.736 619.795L495.534 569.752C507.624 567.287 515.423 555.458 512.958 543.335L438.875 179.081C436.409 166.948 424.613 159.116 412.523 161.571Z" fill="#C1BFD0" stroke="#191919" stroke-width="4.5" stroke-linecap="round" stroke-linejoin="round"/>
<path d="M410.882 181.439L176.001 229.255C171.059 230.265 167.876 235.099 168.886 240.052L182.986 309.375C183.996 314.328 188.819 317.533 193.75 316.522L428.631 268.707C433.574 267.707 436.757 262.863 435.746 257.91L421.647 188.587C420.637 183.634 415.814 180.429 410.882 181.429V181.439Z" fill="#9693AD" stroke="#191919" stroke-width="4.5" stroke-linecap="round" stroke-linejoin="round"/>
<path d="M403.985 195.323L183.856 240.14C180.966 240.727 179.109 243.551 179.695 246.451L191.166 302.859C191.753 305.759 194.577 307.627 197.456 307.041L417.585 262.223C420.475 261.636 422.332 258.812 421.746 255.912L410.275 199.504C409.688 196.604 406.864 194.736 403.985 195.323Z" fill="white" stroke="#191919" stroke-width="4.5" stroke-linecap="round" stroke-linejoin="round"/>
<path d="M231.846 351.933L204.875 357.419C201.453 358.114 198.107 355.898 197.412 352.455L194.49 338.073C193.23 331.849 202.137 330.035 205.548 329.34L226.382 325.104C229.804 324.408 233.15 326.635 233.845 330.068L241.568 336.009C244.284 349.381 239.407 350.38 231.836 351.923H231.846V351.933Z" fill="#C460A5" stroke="#191919" stroke-width="4.5" stroke-linecap="round" stroke-linejoin="round"/>
<path d="M233.768 323.614L205.558 329.36C202.755 329.936 200.941 332.684 201.517 335.497L203.212 343.839C203.787 346.653 206.525 348.478 209.327 347.902L237.537 342.156C240.34 341.58 242.154 338.832 241.578 336.019L239.884 327.676C239.308 324.863 236.57 323.038 233.768 323.614Z" fill="#D481B9" stroke="#191919" stroke-width="4.5" stroke-linecap="round" stroke-linejoin="round"/>
<path d="M200.051 356.429L205.449 347.152" stroke="#191919" stroke-width="4.5" stroke-linecap="round" stroke-linejoin="round"/>
<path d="M299.649 338.129L272.678 343.615C269.256 344.31 265.91 342.083 265.215 338.651L262.293 324.269C261.033 318.045 269.94 316.231 273.351 315.536L294.185 311.299C297.607 310.604 300.953 312.82 301.648 316.263L309.371 322.216C312.087 335.587 307.21 336.587 299.638 338.118H299.649V338.129Z" fill="#A57BEC" stroke="#191919" stroke-width="4.5" stroke-linecap="round" stroke-linejoin="round"/>
<path d="M301.562 309.809L273.351 315.555C270.538 316.131 268.735 318.879 269.3 321.693L270.994 330.035C271.57 332.848 274.307 334.673 277.11 334.097L305.32 328.351C308.123 327.775 309.937 325.038 309.372 322.214L307.677 313.872C307.101 311.058 304.364 309.234 301.562 309.809Z" fill="#BA9AF1" stroke="#191919" stroke-width="4.5" stroke-linecap="round" stroke-linejoin="round"/>
<path d="M267.845 342.624L273.243 333.348" stroke="#191919" stroke-width="4.5" stroke-linecap="round" stroke-linejoin="round"/>
<path d="M367.454 324.32L340.482 329.806C337.061 330.501 333.715 328.285 333.02 324.842L330.098 310.46C328.827 304.236 337.745 302.422 341.156 301.727L361.99 297.49C365.412 296.795 368.758 299.022 369.453 302.454L377.176 308.396C379.892 321.767 375.015 322.767 367.443 324.309H367.454V324.32Z" fill="#A57BEC" stroke="#191919" stroke-width="4.5" stroke-linecap="round" stroke-linejoin="round"/>
<path d="M369.356 296.012L341.146 301.759C338.343 302.334 336.529 305.071 337.105 307.896L338.8 316.238C339.375 319.051 342.113 320.876 344.915 320.3L373.125 314.554C375.939 313.979 377.742 311.23 377.177 308.417L375.483 300.075C374.907 297.262 372.169 295.437 369.356 296.012Z" fill="#BA9AF1" stroke="#191919" stroke-width="4.5" stroke-linecap="round" stroke-linejoin="round"/>
<path d="M335.637 328.827L341.046 319.551" stroke="#191919" stroke-width="4.5" stroke-linecap="round" stroke-linejoin="round"/>
<path d="M435.247 310.516L408.275 316.001C404.853 316.696 401.508 314.481 400.813 311.037L397.891 296.656C396.62 290.432 405.538 288.618 408.949 287.922L429.783 283.686C433.205 282.991 436.55 285.207 437.246 288.65L444.969 294.603C447.685 307.974 442.807 308.963 435.236 310.505H435.247V310.516Z" fill="#A57BEC" stroke="#191919" stroke-width="4.5" stroke-linecap="round" stroke-linejoin="round"/>
<path d="M437.158 282.208L408.948 287.954C406.145 288.529 404.331 291.267 404.907 294.091L406.602 302.433C407.177 305.246 409.915 307.071 412.728 306.496L440.938 300.75C443.741 300.174 445.555 297.426 444.99 294.612L443.295 286.27C442.72 283.457 439.982 281.632 437.169 282.208H437.158Z" fill="#BA9AF1" stroke="#191919" stroke-width="4.5" stroke-linecap="round" stroke-linejoin="round"/>
<path d="M403.441 315.022L408.85 305.746" stroke="#191919" stroke-width="4.5" stroke-linecap="round" stroke-linejoin="round"/>
<path d="M247.27 404.518L217.561 410.568C213.151 411.47 208.849 408.602 207.948 404.181L203.407 381.87C201.778 373.865 212.391 371.703 216.801 370.802L239.471 366.185C243.881 365.284 248.183 368.151 249.084 372.572L252.093 387.66C252.995 392.081 256.58 402.617 247.27 404.518Z" fill="#6F6C8B" stroke="#191919" stroke-width="4.5" stroke-linecap="round" stroke-linejoin="round"/>
<path d="M241.112 365.856L216.801 370.809C213.336 371.515 211.088 374.915 211.805 378.391L215.215 395.173C215.922 398.66 219.311 400.909 222.776 400.203L247.086 395.249C250.551 394.543 252.8 391.144 252.083 387.668L248.672 370.885C247.966 367.399 244.577 365.15 241.101 365.856H241.112Z" fill="#9693AD" stroke="#191919" stroke-width="4.5" stroke-linecap="round" stroke-linejoin="round"/>
<path d="M217.779 399.129L211.208 409.22" stroke="#191919" stroke-width="4.5" stroke-linecap="round" stroke-linejoin="round"/>
<path d="M315.031 390.721L285.311 396.772C280.901 397.673 276.6 394.805 275.698 390.385L271.158 368.073C269.528 360.068 280.141 357.906 284.551 357.005L307.221 352.388C311.631 351.487 315.933 354.354 316.835 358.775L319.844 373.863C320.745 378.284 324.33 388.82 315.021 390.721H315.031Z" fill="#6F6C8B" stroke="#191919" stroke-width="4.5" stroke-linecap="round" stroke-linejoin="round"/>
<path d="M308.872 352.063L284.561 357.016C281.085 357.722 278.847 361.122 279.564 364.598L282.975 381.38C283.681 384.856 287.07 387.115 290.536 386.409L314.846 381.456C318.311 380.75 320.56 377.35 319.843 373.874L316.432 357.092C315.726 353.616 312.337 351.357 308.872 352.063Z" fill="#9693AD" stroke="#191919" stroke-width="4.5" stroke-linecap="round" stroke-linejoin="round"/>
<path d="M285.55 385.332L278.979 395.423" stroke="#191919" stroke-width="4.5" stroke-linecap="round" stroke-linejoin="round"/>
<path d="M382.802 376.928L353.082 382.979C348.672 383.88 344.371 381.012 343.469 376.592L338.929 354.28C337.299 346.275 347.912 344.113 352.322 343.212L374.992 338.595C379.402 337.694 383.704 340.561 384.606 344.982L387.614 360.07C388.516 364.491 392.101 375.027 382.792 376.928H382.802Z" fill="#6F6C8B" stroke="#191919" stroke-width="4.5" stroke-linecap="round" stroke-linejoin="round"/>
<path d="M376.655 338.259L352.345 343.212C348.879 343.918 346.631 347.318 347.348 350.794L350.759 367.576C351.465 371.063 354.854 373.311 358.319 372.605L382.629 367.652C386.105 366.946 388.343 363.546 387.626 360.07L384.215 343.288C383.509 339.801 380.12 337.552 376.655 338.259Z" fill="#9693AD" stroke="#191919" stroke-width="4.5" stroke-linecap="round" stroke-linejoin="round"/>
<path d="M353.322 371.527L346.75 381.618" stroke="#191919" stroke-width="4.5" stroke-linecap="round" stroke-linejoin="round"/>
<path d="M450.574 363.131L420.854 369.182C416.444 370.083 412.142 367.216 411.24 362.795L406.7 340.484C405.07 332.478 415.683 330.317 420.093 329.415L442.763 324.799C447.174 323.897 451.475 326.765 452.377 331.186L455.386 346.273C456.287 350.694 459.872 361.231 450.563 363.131H450.574Z" fill="#C1BFD0" stroke="#191919" stroke-width="4.5" stroke-linecap="round" stroke-linejoin="round"/>
<path d="M444.426 324.462L420.115 329.415C416.639 330.121 414.402 333.521 415.119 336.997L418.529 353.779C419.235 357.266 422.625 359.514 426.09 358.808L450.4 353.855C453.865 353.149 456.114 349.749 455.397 346.273L451.986 329.491C451.28 326.004 447.891 323.756 444.426 324.462Z" fill="#F0F0F2" stroke="#191919" stroke-width="4.5" stroke-linecap="round" stroke-linejoin="round"/>
<path d="M421.093 357.73L414.51 367.821" stroke="#191919" stroke-width="4.5" stroke-linecap="round" stroke-linejoin="round"/>
<path d="M256.993 452.354L227.284 458.404C222.873 459.306 218.572 456.438 217.67 452.017L213.13 429.706C211.5 421.701 222.113 419.539 226.523 418.638L249.193 414.021C253.604 413.12 257.905 415.987 258.807 420.408L261.816 435.496C262.717 439.917 266.302 450.453 256.993 452.354Z" fill="#6F6C8B" stroke="#191919" stroke-width="4.5" stroke-linecap="round" stroke-linejoin="round"/>
<path d="M250.834 413.696L226.523 418.649C223.058 419.355 220.81 422.755 221.527 426.231L224.937 443.013C225.643 446.5 229.033 448.748 232.498 448.042L256.808 443.089C260.273 442.383 262.522 438.983 261.805 435.507L258.394 418.725C257.688 415.238 254.299 412.99 250.834 413.696Z" fill="#9693AD" stroke="#191919" stroke-width="4.5" stroke-linecap="round" stroke-linejoin="round"/>
<path d="M227.511 446.965L220.94 457.045" stroke="#191919" stroke-width="4.5" stroke-linecap="round" stroke-linejoin="round"/>
<path d="M324.765 438.561L295.045 444.611C290.634 445.513 286.333 442.645 285.431 438.224L280.891 415.913C279.261 407.908 289.874 405.746 294.284 404.845L316.954 400.228C321.365 399.327 325.666 402.194 326.568 406.615L329.577 421.703C330.478 426.124 334.063 436.66 324.754 438.561H324.765Z" fill="#6F6C8B" stroke="#191919" stroke-width="4.5" stroke-linecap="round" stroke-linejoin="round"/>
<path d="M318.605 399.899L294.295 404.852C290.819 405.558 288.581 408.958 289.298 412.434L292.709 429.216C293.415 432.692 296.804 434.951 300.269 434.245L324.58 429.292C328.045 428.586 330.294 425.186 329.577 421.71L326.166 404.928C325.46 401.452 322.071 399.193 318.605 399.899Z" fill="#9693AD" stroke="#191919" stroke-width="4.5" stroke-linecap="round" stroke-linejoin="round"/>
<path d="M295.283 433.16L288.711 443.24" stroke="#191919" stroke-width="4.5" stroke-linecap="round" stroke-linejoin="round"/>
<path d="M392.526 424.764L362.806 430.814C358.396 431.716 354.094 428.848 353.193 424.427L348.652 402.116C347.023 394.111 357.636 391.949 362.046 391.048L384.716 386.431C389.126 385.53 393.428 388.397 394.329 392.818L397.338 407.906C398.24 412.327 401.824 422.863 392.515 424.764H392.526Z" fill="#6F6C8B" stroke="#191919" stroke-width="4.5" stroke-linecap="round" stroke-linejoin="round"/>
<path d="M386.386 386.094L362.076 391.048C358.61 391.754 356.362 395.154 357.079 398.63L360.49 415.412C361.196 418.898 364.585 421.147 368.05 420.441L392.36 415.488C395.836 414.782 398.074 411.382 397.357 407.906L393.946 391.124C393.24 387.637 389.851 385.388 386.386 386.094Z" fill="#9693AD" stroke="#191919" stroke-width="4.5" stroke-linecap="round" stroke-linejoin="round"/>
<path d="M363.043 419.375L356.472 429.444" stroke="#191919" stroke-width="4.5" stroke-linecap="round" stroke-linejoin="round"/>
<path d="M460.306 410.971L430.597 417.021C426.187 417.923 421.886 415.055 420.984 410.634L416.443 388.323C414.814 380.318 425.427 378.156 429.837 377.255L452.507 372.638C456.917 371.737 461.219 374.604 462.12 379.025L465.129 394.113C466.031 398.534 469.616 409.07 460.306 410.971Z" fill="#C1BFD0" stroke="#191919" stroke-width="4.5" stroke-linecap="round" stroke-linejoin="round"/>
<path d="M454.148 372.301L429.838 377.254C426.362 377.96 424.124 381.36 424.841 384.836L428.252 401.618C428.958 405.105 432.347 407.354 435.812 406.647L460.123 401.694C463.588 400.988 465.836 397.588 465.119 394.112L461.708 377.33C461.002 373.854 457.613 371.595 454.148 372.301Z" fill="#F0F0F2" stroke="#191919" stroke-width="4.5" stroke-linecap="round" stroke-linejoin="round"/>
<path d="M430.825 405.57L424.243 415.65" stroke="#191919" stroke-width="4.5" stroke-linecap="round" stroke-linejoin="round"/>
<path d="M266.726 500.179L237.017 506.229C232.606 507.131 228.305 504.263 227.403 499.842L222.863 477.531C221.233 469.526 231.846 467.364 236.256 466.463L258.926 461.846C263.337 460.956 267.638 463.812 268.54 468.233L271.549 483.321C272.45 487.742 276.035 498.278 266.726 500.179Z" fill="#6F6C8B" stroke="#191919" stroke-width="4.5" stroke-linecap="round" stroke-linejoin="round"/>
<path d="M260.567 461.524L236.257 466.477C232.792 467.183 230.543 470.583 231.26 474.059L234.671 490.841C235.377 494.317 238.766 496.577 242.242 495.871L266.553 490.917C270.029 490.211 272.266 486.811 271.549 483.336L268.139 466.553C267.433 463.067 264.043 460.818 260.578 461.524H260.567Z" fill="#9693AD" stroke="#191919" stroke-width="4.5" stroke-linecap="round" stroke-linejoin="round"/>
<path d="M237.244 494.793L230.673 504.884" stroke="#191919" stroke-width="4.5" stroke-linecap="round" stroke-linejoin="round"/>
<path d="M334.487 486.385L304.778 492.436C300.368 493.337 296.066 490.47 295.165 486.049L290.624 463.738C288.995 455.732 299.608 453.57 304.018 452.669L326.688 448.052C331.098 447.151 335.4 450.019 336.301 454.439L339.31 469.527C340.212 473.948 343.797 484.484 334.487 486.385Z" fill="#6F6C8B" stroke="#191919" stroke-width="4.5" stroke-linecap="round" stroke-linejoin="round"/>
<path d="M328.326 447.727L304.016 452.68C300.54 453.386 298.302 456.786 299.019 460.262L302.43 477.044C303.136 480.531 306.525 482.779 309.99 482.073L334.301 477.12C337.766 476.414 340.015 473.014 339.298 469.538L335.887 452.756C335.181 449.28 331.792 447.021 328.326 447.727Z" fill="#9693AD" stroke="#191919" stroke-width="4.5" stroke-linecap="round" stroke-linejoin="round"/>
<path d="M305.003 480.996L298.432 491.087" stroke="#191919" stroke-width="4.5" stroke-linecap="round" stroke-linejoin="round"/>
<path d="M402.257 472.592L372.537 478.643C368.127 479.544 363.826 476.677 362.924 472.256L358.383 449.945C356.754 441.939 367.367 439.778 371.777 438.876L394.447 434.259C398.857 433.358 403.159 436.226 404.06 440.646L407.069 455.734C407.971 460.155 411.556 470.691 402.246 472.592H402.257Z" fill="#6F6C8B" stroke="#191919" stroke-width="4.5" stroke-linecap="round" stroke-linejoin="round"/>
<path d="M396.11 433.919L371.799 438.872C368.334 439.578 366.086 442.978 366.803 446.454L370.214 463.236C370.92 466.723 374.309 468.971 377.774 468.265L402.084 463.312C405.56 462.606 407.798 459.206 407.081 455.73L403.67 438.948C402.964 435.461 399.575 433.213 396.11 433.919Z" fill="#9693AD" stroke="#191919" stroke-width="4.5" stroke-linecap="round" stroke-linejoin="round"/>
<path d="M372.775 467.191L366.204 477.282" stroke="#191919" stroke-width="4.5" stroke-linecap="round" stroke-linejoin="round"/>
<path d="M276.404 548.019L246.684 554.069C242.274 554.971 237.972 552.103 237.071 547.682L232.53 525.371C230.901 517.366 241.514 515.204 245.924 514.303L268.594 509.686C273.004 508.795 277.306 511.652 278.207 516.073L281.216 531.161C282.118 535.582 285.703 546.118 276.393 548.019H276.404Z" fill="#6F6C8B" stroke="#191919" stroke-width="4.5" stroke-linecap="round" stroke-linejoin="round"/>
<path d="M270.256 509.348L245.945 514.302C242.48 515.008 240.232 518.408 240.949 521.883L244.36 538.666C245.066 542.152 248.455 544.401 251.92 543.695L276.23 538.742C279.695 538.036 281.944 534.636 281.227 531.16L277.816 514.378C277.11 510.891 273.721 508.642 270.256 509.348Z" fill="#9693AD" stroke="#191919" stroke-width="4.5" stroke-linecap="round" stroke-linejoin="round"/>
<path d="M246.923 542.621L240.352 552.712" stroke="#191919" stroke-width="4.5" stroke-linecap="round" stroke-linejoin="round"/>
<path d="M344.176 534.21L314.456 540.26C310.046 541.161 305.745 538.294 304.843 533.873L300.302 511.562C298.673 503.556 309.297 501.395 313.696 500.493L336.366 495.877C340.776 494.975 345.078 497.843 345.979 502.264L348.988 517.351C349.89 521.772 353.475 532.309 344.165 534.21H344.176Z" fill="#6F6C8B" stroke="#191919" stroke-width="4.5" stroke-linecap="round" stroke-linejoin="round"/>
<path d="M338.027 495.552L313.716 500.505C310.251 501.211 308.003 504.611 308.72 508.087L312.131 524.869C312.837 528.345 316.226 530.604 319.691 529.898L344.001 524.945C347.466 524.239 349.715 520.839 348.998 517.363L345.587 500.581C344.881 497.094 341.492 494.845 338.027 495.552Z" fill="#9693AD" stroke="#191919" stroke-width="4.5" stroke-linecap="round" stroke-linejoin="round"/>
<path d="M314.695 528.824L308.113 538.915" stroke="#191919" stroke-width="4.5" stroke-linecap="round" stroke-linejoin="round"/>
<path d="M411.947 520.417L382.227 526.467C377.817 527.368 373.515 524.501 372.613 520.08L368.073 497.769C366.443 489.763 377.056 487.602 381.466 486.7L404.137 482.084C408.547 481.182 412.848 484.05 413.75 488.471L416.759 503.558C417.66 507.979 421.245 518.516 411.936 520.417H411.947Z" fill="#6F6C8B" stroke="#191919" stroke-width="4.5" stroke-linecap="round" stroke-linejoin="round"/>
<path d="M405.788 481.759L381.478 486.712C378.013 487.418 375.764 490.818 376.481 494.294L379.892 511.076C380.598 514.552 383.987 516.811 387.452 516.105L411.763 511.152C415.228 510.446 417.476 507.046 416.76 503.57L413.349 486.788C412.643 483.301 409.253 481.052 405.788 481.759Z" fill="#9693AD" stroke="#191919" stroke-width="4.5" stroke-linecap="round" stroke-linejoin="round"/>
<path d="M382.464 515.031L375.882 525.122" stroke="#191919" stroke-width="4.5" stroke-linecap="round" stroke-linejoin="round"/>
<path d="M470.04 458.784L440.331 464.834C435.921 465.736 431.619 462.868 430.718 458.447L426.177 436.136C424.548 428.131 435.16 425.969 439.571 425.067L462.241 420.451C466.651 419.549 470.953 422.417 471.854 426.838L474.863 441.926C475.765 446.346 479.349 456.883 470.04 458.784Z" fill="#C1BFD0" stroke="#191919" stroke-width="4.5" stroke-linecap="round" stroke-linejoin="round"/>
<path d="M463.88 420.126L439.569 425.079C436.104 425.785 433.856 429.185 434.572 432.661L437.983 449.443C438.689 452.919 442.078 455.178 445.544 454.472L469.854 449.519C473.319 448.813 475.568 445.413 474.851 441.937L471.44 425.155C470.734 421.668 467.345 419.42 463.88 420.126Z" fill="#F0F0F2" stroke="#191919" stroke-width="4.5" stroke-linecap="round" stroke-linejoin="round"/>
<path d="M440.559 453.398L433.977 463.489" stroke="#191919" stroke-width="4.5" stroke-linecap="round" stroke-linejoin="round"/>
<path d="M286.116 595.846L256.396 601.896C251.986 602.798 247.684 599.93 246.783 595.509L242.242 573.198C240.613 565.193 251.237 563.031 255.636 562.13L278.306 557.513C282.716 556.612 287.018 559.479 287.919 563.9L290.928 578.988C291.83 583.409 295.415 593.945 286.105 595.846H286.116Z" fill="#C1BFD0" stroke="#191919" stroke-width="4.5" stroke-linecap="round" stroke-linejoin="round"/>
<path d="M279.957 557.188L255.646 562.141C252.181 562.847 249.933 566.247 250.65 569.723L254.06 586.505C254.767 589.992 258.156 592.241 261.621 591.535L285.931 586.581C289.396 585.875 291.634 582.476 290.928 579L287.517 562.217C286.811 558.731 283.422 556.482 279.957 557.188Z" fill="#F0F0F2" stroke="#191919" stroke-width="4.5" stroke-linecap="round" stroke-linejoin="round"/>
<path d="M256.632 590.445L250.05 600.536" stroke="#191919" stroke-width="4.5" stroke-linecap="round" stroke-linejoin="round"/>
<path d="M353.909 582.038L324.189 588.089C319.779 588.99 315.477 586.123 314.576 581.702L310.035 559.391C308.406 551.385 319.019 549.224 323.429 548.322L346.099 543.706C350.509 542.815 354.811 545.672 355.712 550.093L358.721 565.18C359.623 569.601 363.207 580.138 353.898 582.038H353.909Z" fill="#C1BFD0" stroke="#191919" stroke-width="4.5" stroke-linecap="round" stroke-linejoin="round"/>
<path d="M347.749 543.38L323.439 548.333C319.963 549.039 317.725 552.439 318.442 555.915L321.853 572.697C322.559 576.184 325.948 578.432 329.413 577.726L353.724 572.773C357.189 572.067 359.438 568.667 358.721 565.191L355.31 548.409C354.604 544.922 351.215 542.674 347.749 543.38Z" fill="#F0F0F2" stroke="#191919" stroke-width="4.5" stroke-linecap="round" stroke-linejoin="round"/>
<path d="M324.427 576.652L317.844 586.743" stroke="#191919" stroke-width="4.5" stroke-linecap="round" stroke-linejoin="round"/>
<path d="M421.669 568.241L391.949 574.291C387.539 575.193 383.238 572.325 382.336 567.904L377.796 545.593C376.166 537.588 386.79 535.426 391.189 534.524L413.859 529.908C418.269 529.006 422.571 531.874 423.473 536.295L426.482 551.383C427.383 555.804 430.968 566.34 421.659 568.241H421.669Z" fill="#C1BFD0" stroke="#191919" stroke-width="4.5" stroke-linecap="round" stroke-linejoin="round"/>
<path d="M415.52 529.583L391.21 534.536C387.745 535.242 385.496 538.642 386.213 542.118L389.624 558.9C390.33 562.387 393.719 564.635 397.184 563.929L421.495 558.976C424.96 558.27 427.197 554.87 426.491 551.394L423.081 534.612C422.375 531.125 418.985 528.877 415.52 529.583Z" fill="#F0F0F2" stroke="#191919" stroke-width="4.5" stroke-linecap="round" stroke-linejoin="round"/>
<path d="M392.188 562.855L385.606 572.947" stroke="#191919" stroke-width="4.5" stroke-linecap="round" stroke-linejoin="round"/>
<path d="M490.788 554.175L458.602 560.725C454.876 561.486 451.237 559.074 450.477 555.327L436.149 484.885C434.335 475.945 445.089 473.762 448.826 473.002L473.266 468.027C476.992 467.266 480.631 469.678 481.392 473.425L494.492 538.132C495.252 541.868 499.315 552.448 490.799 554.186L490.788 554.175Z" fill="#C460A5" stroke="#191919" stroke-width="4.5" stroke-linecap="round" stroke-linejoin="round"/>
<path d="M474.212 467.831L448.804 473.002C445.632 473.642 443.59 476.749 444.242 479.921L457.603 545.626C458.255 548.809 461.339 550.862 464.511 550.21L489.919 545.04C493.091 544.399 495.133 541.292 494.481 538.121L481.12 472.415C480.468 469.232 477.383 467.179 474.212 467.82V467.831Z" fill="#D481B9" stroke="#191919" stroke-width="4.5" stroke-linecap="round" stroke-linejoin="round"/>
<path d="M459.796 549.125L452.997 559.412" stroke="#191919" stroke-width="4.5" stroke-linecap="round" stroke-linejoin="round"/>
<path d="M343.056 261.711L340.395 248.633" stroke="#191919" stroke-width="4.5" stroke-linecap="round" stroke-linejoin="round"/>
<path d="M357.884 263.828L348.619 265.719" stroke="#191919" stroke-width="4.5" stroke-linecap="round" stroke-linejoin="round"/>
<path d="M358.775 244.895L361.436 257.973" stroke="#191919" stroke-width="4.5" stroke-linecap="round" stroke-linejoin="round"/>
<path d="M354.255 222.672L357.014 236.25" stroke="#191919" stroke-width="4.5" stroke-linecap="round" stroke-linejoin="round"/>
<path d="M339.45 220.676L348.715 218.785" stroke="#191919" stroke-width="4.5" stroke-linecap="round" stroke-linejoin="round"/>
<path d="M338.636 239.988L335.877 226.41" stroke="#191919" stroke-width="4.5" stroke-linecap="round" stroke-linejoin="round"/>
<path d="M371.756 261.005L371.484 259.668" stroke="#191919" stroke-width="4.5" stroke-linecap="round" stroke-linejoin="round"/>
<path d="M379.999 254.195L377.338 241.117" stroke="#191919" stroke-width="4.5" stroke-linecap="round" stroke-linejoin="round"/>
<path d="M394.827 256.312L385.562 258.204" stroke="#191919" stroke-width="4.5" stroke-linecap="round" stroke-linejoin="round"/>
<path d="M395.73 237.379L398.391 250.457" stroke="#191919" stroke-width="4.5" stroke-linecap="round" stroke-linejoin="round"/>
<path d="M391.199 215.145L393.958 228.722" stroke="#191919" stroke-width="4.5" stroke-linecap="round" stroke-linejoin="round"/>
<path d="M376.406 213.145L385.67 211.254" stroke="#191919" stroke-width="4.5" stroke-linecap="round" stroke-linejoin="round"/>
<path d="M375.58 232.468L372.821 218.891" stroke="#191919" stroke-width="4.5" stroke-linecap="round" stroke-linejoin="round"/>
<path d="M180.412 242.507L170.343 232.98" stroke="#191919" stroke-width="4.5" stroke-linecap="round" stroke-linejoin="round"/>
<path d="M187.091 315.315L193.358 306.18" stroke="#191919" stroke-width="4.5" stroke-linecap="round" stroke-linejoin="round"/>
<path d="M407.819 196.015L417.606 182.688" stroke="#191919" stroke-width="4.5" stroke-linecap="round" stroke-linejoin="round"/>
<path d="M420.855 260.07L434.336 264.937" stroke="#191919" stroke-width="4.5" stroke-linecap="round" stroke-linejoin="round"/>
<path d="M628.965 417.27L624.825 426.251C623.906 428.237 629.02 432.532 636.245 435.869C643.457 439.199 650.055 440.309 650.974 438.322L655.114 429.341C654.195 431.328 647.608 430.215 640.385 426.888C633.16 423.551 628.057 419.253 628.965 417.27Z" fill="#F0F0F2" stroke="#191919" stroke-width="4.5" stroke-linecap="round" stroke-linejoin="round"/>
<path d="M695.69 272.648L628.964 417.271C628.045 419.258 633.159 423.552 640.384 426.89C647.596 430.22 654.194 431.33 655.113 429.343L721.829 284.723C725.167 277.503 722.012 268.942 714.797 265.601C711.189 263.931 707.24 263.893 703.786 265.171C700.329 266.44 697.357 269.028 695.69 272.648Z" fill="#915DE6" stroke="#191919" stroke-width="4.5" stroke-linecap="round" stroke-linejoin="round"/>
<path d="M696.15 268.007C696.671 266.879 698.007 266.387 699.135 266.907C700.263 267.428 700.756 268.765 700.234 269.894L696.15 268.007ZM709.037 278.088L709.98 276.045L709.982 276.046L709.037 278.088ZM715.173 278.07C716.358 278.441 717.018 279.703 716.647 280.889C716.275 282.075 715.013 282.736 713.827 282.365L715.173 278.07ZM698.192 268.951L700.234 269.894C700.514 269.288 700.131 269.008 700.458 269.526C700.723 269.946 701.268 270.56 702.165 271.315C703.934 272.805 706.677 274.519 709.98 276.045L709.037 278.088L708.093 280.131C704.534 278.487 701.421 276.574 699.266 274.758C698.201 273.861 697.267 272.902 696.652 271.928C696.099 271.051 695.436 269.554 696.15 268.007L698.192 268.951ZM709.037 278.088L709.982 276.046C711.794 276.885 713.564 277.566 715.173 278.07L714.5 280.217L713.827 282.365C712.02 281.799 710.068 281.045 708.091 280.13L709.037 278.088Z" fill="#191919"/>
<path d="M575.083 561.536L563.211 587.262C562.548 588.714 563.176 590.423 564.616 591.089C566.056 591.756 567.775 591.125 568.441 589.684L580.312 563.957C580.132 564.358 578.805 564.133 577.364 563.467C575.924 562.8 574.892 561.939 575.072 561.538L575.083 561.536Z" fill="#915DE6" stroke="#191919" stroke-width="4.5" stroke-linecap="round" stroke-linejoin="round"/>
<path d="M624.825 426.25L569.99 545.096C569.071 547.082 574.184 551.377 581.41 554.714C588.622 558.045 595.22 559.154 596.138 557.167L650.974 438.322C650.055 440.308 643.467 439.196 636.245 435.869C629.023 432.541 623.916 428.234 624.825 426.25Z" fill="#915DE6" stroke="#191919" stroke-width="4.5" stroke-linecap="round" stroke-linejoin="round"/>
<path d="M569.989 545.098L565.554 554.715C562.219 561.945 560.842 580.298 568.067 583.636C575.279 586.966 588.357 574.019 591.693 566.79L596.128 557.172C595.209 559.159 588.621 558.046 581.399 554.719C574.174 551.382 569.07 547.084 569.979 545.101L569.989 545.098Z" fill="#F0F0F2" stroke="#191919" stroke-width="4.5" stroke-linecap="round" stroke-linejoin="round"/>
<path d="M590.636 563.691C591.158 562.563 592.495 562.071 593.623 562.592C594.75 563.114 595.242 564.451 594.72 565.579L590.636 563.691ZM577.949 562.182L577.008 564.226L577.006 564.225L577.949 562.182ZM564.484 551.627C565.001 550.497 566.336 550 567.466 550.517C568.596 551.035 569.092 552.37 568.575 553.5L564.484 551.627ZM592.678 564.635L594.72 565.579C593.993 567.15 592.394 567.632 591.323 567.785C590.139 567.955 588.746 567.861 587.306 567.621C584.393 567.133 580.746 565.948 577.008 564.226L577.949 562.182L578.891 560.138C582.376 561.743 585.633 562.778 588.049 563.182C589.274 563.387 590.151 563.407 590.686 563.33C591.335 563.237 590.903 563.113 590.636 563.691L592.678 564.635ZM577.949 562.182L577.006 564.225C573.265 562.497 569.998 560.489 567.74 558.586C566.623 557.646 565.65 556.647 565.012 555.636C564.436 554.723 563.765 553.197 564.484 551.627L566.529 552.563L568.575 553.5C568.839 552.922 568.466 552.677 568.816 553.232C569.105 553.689 569.69 554.345 570.639 555.144C572.511 556.72 575.408 558.529 578.893 560.139L577.949 562.182Z" fill="#191919"/>
<path d="M711.098 310.932L703.276 307.322C700.174 305.882 705.367 294.628 708.469 296.068L716.29 299.678L711.098 310.932Z" fill="#F0F0F2" stroke="#191919" stroke-width="4.5" stroke-linecap="round" stroke-linejoin="round"/>
<path d="M714.313 295.219C715.757 292.091 719.461 290.726 722.587 292.17C725.713 293.614 727.077 297.321 725.634 300.449L670.632 419.646C669.189 422.774 665.485 424.139 662.358 422.695C659.232 421.251 657.868 417.544 659.312 414.416L714.313 295.219Z" fill="#F0F0F2" stroke="#191919" stroke-width="4.5" stroke-linecap="round" stroke-linejoin="round"/>
</svg>
